<mxfile host="app.diagrams.net" modified="2023-04-28T14:09:57.199Z" agent="Mozilla/5.0 (Windows NT 10.0; Win64; x64; rv:109.0) Gecko/20100101 Firefox/112.0" etag="gOQPDoCV1mCjyJVyVmXx" version="21.2.3" type="device">
  <diagram name="Page-1" id="c9db0220-8083-56f3-ca83-edcdcd058819">
    <mxGraphModel dx="1562" dy="805" grid="1" gridSize="10" guides="1" tooltips="1" connect="1" arrows="1" fold="1" page="1" pageScale="1.5" pageWidth="826" pageHeight="1169" background="none" math="0" shadow="0">
      <root>
        <mxCell id="0" style=";html=1;" />
        <mxCell id="1" style=";html=1;" parent="0" />
        <mxCell id="DpDxxJjmYzguWLow-8Xv-1" value="PC or smartphone" style="shape=cube;whiteSpace=wrap;html=1;boundedLbl=1;backgroundOutline=1;darkOpacity=0.05;darkOpacity2=0.1;direction=south;size=10;" parent="1" vertex="1">
          <mxGeometry x="200" y="320" width="120" height="70" as="geometry" />
        </mxCell>
        <mxCell id="DpDxxJjmYzguWLow-8Xv-2" value="&amp;lt;&amp;lt;deploy&amp;gt;&amp;gt;" style="endArrow=none;dashed=1;html=1;rounded=0;" parent="1" source="DpDxxJjmYzguWLow-8Xv-3" target="DpDxxJjmYzguWLow-8Xv-1" edge="1">
          <mxGeometry width="50" height="50" relative="1" as="geometry">
            <mxPoint x="20" y="530" as="sourcePoint" />
            <mxPoint x="30" y="450" as="targetPoint" />
          </mxGeometry>
        </mxCell>
        <mxCell id="DpDxxJjmYzguWLow-8Xv-3" value="Web EZWallet Client" style="shape=note;whiteSpace=wrap;html=1;backgroundOutline=1;darkOpacity=0.05;" parent="1" vertex="1">
          <mxGeometry y="305" width="80" height="100" as="geometry" />
        </mxCell>
        <mxCell id="DpDxxJjmYzguWLow-8Xv-6" value="+internet link" style="endArrow=none;html=1;rounded=0;" parent="1" source="DpDxxJjmYzguWLow-8Xv-1" target="DpDxxJjmYzguWLow-8Xv-7" edge="1">
          <mxGeometry width="50" height="50" relative="1" as="geometry">
            <mxPoint x="310" y="360" as="sourcePoint" />
            <mxPoint x="420" y="260" as="targetPoint" />
          </mxGeometry>
        </mxCell>
        <mxCell id="DpDxxJjmYzguWLow-8Xv-7" value="Server Machine" style="shape=cube;whiteSpace=wrap;html=1;boundedLbl=1;backgroundOutline=1;darkOpacity=0.05;darkOpacity2=0.1;direction=south;size=10;" parent="1" vertex="1">
          <mxGeometry x="480" y="320" width="200" height="70" as="geometry" />
        </mxCell>
        <mxCell id="DpDxxJjmYzguWLow-8Xv-8" value="&amp;lt;&amp;lt;deploy&amp;gt;&amp;gt;" style="endArrow=none;dashed=1;html=1;rounded=0;" parent="1" source="DpDxxJjmYzguWLow-8Xv-9" target="DpDxxJjmYzguWLow-8Xv-7" edge="1">
          <mxGeometry width="50" height="50" relative="1" as="geometry">
            <mxPoint x="530" y="110" as="sourcePoint" />
            <mxPoint x="626" y="-30" as="targetPoint" />
          </mxGeometry>
        </mxCell>
        <mxCell id="DpDxxJjmYzguWLow-8Xv-9" value="EZWallet Server" style="shape=note;whiteSpace=wrap;html=1;backgroundOutline=1;darkOpacity=0.05;" parent="1" vertex="1">
          <mxGeometry x="540" y="140" width="80" height="100" as="geometry" />
        </mxCell>
        <mxCell id="DpDxxJjmYzguWLow-8Xv-10" value="Ads Server" style="shape=cube;whiteSpace=wrap;html=1;boundedLbl=1;backgroundOutline=1;darkOpacity=0.05;darkOpacity2=0.1;direction=south;size=10;" parent="1" vertex="1">
          <mxGeometry x="800" y="440" width="120" height="70" as="geometry" />
        </mxCell>
        <mxCell id="DpDxxJjmYzguWLow-8Xv-11" value="+internet link" style="endArrow=none;html=1;rounded=0;" parent="1" source="DpDxxJjmYzguWLow-8Xv-10" target="DpDxxJjmYzguWLow-8Xv-7" edge="1">
          <mxGeometry width="50" height="50" relative="1" as="geometry">
            <mxPoint x="430" y="430" as="sourcePoint" />
            <mxPoint x="480" y="380" as="targetPoint" />
          </mxGeometry>
        </mxCell>
        <mxCell id="DpDxxJjmYzguWLow-8Xv-13" value="Payment Server" style="shape=cube;whiteSpace=wrap;html=1;boundedLbl=1;backgroundOutline=1;darkOpacity=0.05;darkOpacity2=0.1;direction=south;size=10;" parent="1" vertex="1">
          <mxGeometry x="800" y="200" width="120" height="70" as="geometry" />
        </mxCell>
        <mxCell id="DpDxxJjmYzguWLow-8Xv-14" value="+internet link" style="endArrow=none;html=1;rounded=0;" parent="1" source="DpDxxJjmYzguWLow-8Xv-13" target="DpDxxJjmYzguWLow-8Xv-7" edge="1">
          <mxGeometry width="50" height="50" relative="1" as="geometry">
            <mxPoint x="554.29" y="320" as="sourcePoint" />
            <mxPoint x="615.713611111111" y="230" as="targetPoint" />
          </mxGeometry>
        </mxCell>
        <mxCell id="DpDxxJjmYzguWLow-8Xv-15" value="Paypal Checkout" style="shape=note;whiteSpace=wrap;html=1;backgroundOutline=1;darkOpacity=0.05;" parent="1" vertex="1">
          <mxGeometry x="1000" y="80" width="80" height="120" as="geometry" />
        </mxCell>
        <mxCell id="DpDxxJjmYzguWLow-8Xv-16" value="&amp;lt;&amp;lt;deploy&amp;gt;&amp;gt;" style="endArrow=none;dashed=1;html=1;rounded=0;" parent="1" source="DpDxxJjmYzguWLow-8Xv-15" target="DpDxxJjmYzguWLow-8Xv-13" edge="1">
          <mxGeometry width="50" height="50" relative="1" as="geometry">
            <mxPoint x="910.16" y="240" as="sourcePoint" />
            <mxPoint x="1039.9974193548387" y="330" as="targetPoint" />
          </mxGeometry>
        </mxCell>
        <mxCell id="DpDxxJjmYzguWLow-8Xv-17" value="Google AdSense" style="shape=note;whiteSpace=wrap;html=1;backgroundOutline=1;darkOpacity=0.05;" parent="1" vertex="1">
          <mxGeometry x="1000" y="560" width="80" height="100" as="geometry" />
        </mxCell>
        <mxCell id="DpDxxJjmYzguWLow-8Xv-18" value="&amp;lt;&amp;lt;deploy&amp;gt;&amp;gt;" style="endArrow=none;dashed=1;html=1;rounded=0;" parent="1" source="DpDxxJjmYzguWLow-8Xv-17" target="DpDxxJjmYzguWLow-8Xv-10" edge="1">
          <mxGeometry width="50" height="50" relative="1" as="geometry">
            <mxPoint x="767.16" y="470" as="sourcePoint" />
            <mxPoint x="830" y="469.32929377350615" as="targetPoint" />
          </mxGeometry>
        </mxCell>
        <mxCell id="5S8EcGvdPkndbleXeheR-1" value="+internet link" style="endArrow=none;html=1;rounded=0;entryX=0;entryY=0;entryDx=70;entryDy=105;entryPerimeter=0;" edge="1" parent="1" target="DpDxxJjmYzguWLow-8Xv-7">
          <mxGeometry width="50" height="50" relative="1" as="geometry">
            <mxPoint x="590" y="520" as="sourcePoint" />
            <mxPoint x="672" y="400" as="targetPoint" />
          </mxGeometry>
        </mxCell>
        <mxCell id="5S8EcGvdPkndbleXeheR-2" value="&lt;div&gt;Email Server&lt;/div&gt;" style="shape=cube;whiteSpace=wrap;html=1;boundedLbl=1;backgroundOutline=1;darkOpacity=0.05;darkOpacity2=0.1;direction=south;size=10;" vertex="1" parent="1">
          <mxGeometry x="540" y="520" width="120" height="70" as="geometry" />
        </mxCell>
        <mxCell id="5S8EcGvdPkndbleXeheR-3" value="&amp;lt;&amp;lt;deploy&amp;gt;&amp;gt;" style="endArrow=none;dashed=1;html=1;rounded=0;" edge="1" parent="1" target="5S8EcGvdPkndbleXeheR-2">
          <mxGeometry width="50" height="50" relative="1" as="geometry">
            <mxPoint x="660" y="660" as="sourcePoint" />
            <mxPoint x="917" y="520" as="targetPoint" />
          </mxGeometry>
        </mxCell>
        <mxCell id="5S8EcGvdPkndbleXeheR-4" value="&lt;div&gt;Gmail&lt;/div&gt;" style="shape=note;whiteSpace=wrap;html=1;backgroundOutline=1;darkOpacity=0.05;" vertex="1" parent="1">
          <mxGeometry x="630" y="660" width="80" height="100" as="geometry" />
        </mxCell>
      </root>
    </mxGraphModel>
  </diagram>
</mxfile>
